<svg width="72" height="25" viewBox="0 0 72 25" fill="none" xmlns="http://www.w3.org/2000/svg">
<g clip-path="url(#clip0_1_3423)">
<path d="M66.1958 0.693193H6.01024C5.79085 0.693193 5.5741 0.693193 5.3553 0.69439C5.17214 0.695586 4.99044 0.699062 4.80552 0.701988C4.40379 0.706715 4.00301 0.742057 3.60666 0.807707C3.21086 0.874786 2.82746 1.00125 2.46943 1.18282C2.11183 1.36593 1.78509 1.60385 1.50105 1.88797C1.21551 2.17129 0.9775 2.49877 0.796158 2.85781C0.614315 3.21614 0.488225 3.60013 0.422242 3.9965C0.355632 4.39238 0.319788 4.79282 0.315033 5.19423C0.309481 5.37766 0.308895 5.56169 0.305969 5.74515V19.5736C0.308895 19.7594 0.309481 19.9393 0.315033 20.1251C0.31979 20.5265 0.355633 20.927 0.422242 21.3228C0.488043 21.7194 0.61414 22.1036 0.796158 22.4621C0.977417 22.82 1.21546 23.1461 1.50105 23.4279C1.78401 23.7132 2.11097 23.9513 2.46943 24.133C2.82746 24.3151 3.21082 24.4423 3.60666 24.5104C4.00308 24.5755 4.40382 24.6109 4.80552 24.6162C4.99044 24.6203 5.17214 24.6226 5.3553 24.6226C5.57409 24.6238 5.79086 24.6238 6.01024 24.6238H66.1958C66.4108 24.6238 66.6293 24.6238 66.8443 24.6226C67.0266 24.6226 67.2135 24.6203 67.3958 24.6162C67.7968 24.6112 68.1967 24.5758 68.5924 24.5104C68.9895 24.4418 69.3742 24.3146 69.734 24.133C70.0921 23.9512 70.4188 23.7131 70.7015 23.4279C70.9863 23.145 71.2249 22.8191 71.4084 22.4621C71.589 22.1034 71.7139 21.7192 71.7788 21.3228C71.8455 20.9269 71.8826 20.5266 71.8898 20.1251C71.8921 19.9393 71.8921 19.7594 71.8921 19.5736C71.8968 19.3563 71.8968 19.1401 71.8968 18.9192V6.39833C71.8968 6.17924 71.8968 5.9619 71.8921 5.74515C71.8921 5.56169 71.8921 5.37766 71.8898 5.1942C71.8826 4.79276 71.8455 4.39241 71.7788 3.99648C71.7138 3.60033 71.5889 3.21638 71.4084 2.85779C71.0391 2.13812 70.4535 1.55232 69.734 1.18277C69.3742 1.00164 68.9894 0.875209 68.5924 0.807653C68.1968 0.741714 67.7968 0.706359 67.3958 0.701904C67.2135 0.698984 67.0266 0.695478 66.8443 0.694312C66.6293 0.693115 66.4108 0.693115 66.1958 0.693115V0.693193Z" fill="#A6A6A6"/>
<path d="M5.35887 24.1002C5.17659 24.1002 4.99872 24.0979 4.81787 24.0938C4.44322 24.0889 4.06946 24.0563 3.69963 23.9962C3.35478 23.9368 3.02072 23.8263 2.70846 23.6684C2.39906 23.5118 2.11686 23.3065 1.87268 23.0602C1.62496 22.8169 1.41873 22.5347 1.26215 22.2248C1.10384 21.9128 0.994281 21.5784 0.937288 21.2333C0.875741 20.8624 0.842442 20.4875 0.837677 20.1116C0.833884 19.9854 0.828918 19.5653 0.828918 19.5653V5.74502C0.828918 5.74502 0.834207 5.33138 0.837707 5.20985C0.842269 4.83455 0.875375 4.46014 0.936738 4.08986C0.993835 3.74377 1.10348 3.40845 1.26187 3.09548C1.41788 2.78577 1.62297 2.50334 1.86919 2.25914C2.11514 2.01262 2.39824 1.80621 2.70816 1.64743C3.01971 1.49002 3.35314 1.38032 3.69729 1.32201C4.06833 1.26132 4.4434 1.22852 4.81934 1.22386L5.35917 1.21655H66.842L67.3883 1.22415C67.7608 1.22858 68.1325 1.26109 68.5001 1.32142C68.8477 1.38046 69.1846 1.49093 69.4997 1.64918C70.1206 1.96916 70.6258 2.4754 70.9445 3.09694C71.1004 3.40775 71.2084 3.74034 71.2647 4.08343C71.3268 4.45675 71.3616 4.83411 71.3687 5.21248C71.3705 5.38191 71.3704 5.56391 71.3704 5.74502C71.3752 5.96937 71.3752 6.18291 71.3752 6.3982V18.9191C71.3752 19.1364 71.3752 19.3485 71.3704 19.5624C71.3704 19.7569 71.3704 19.9351 71.3681 20.1186C71.3611 20.4902 71.327 20.8608 71.2659 21.2274C71.21 21.5751 71.1011 21.912 70.9428 22.2265C70.7851 22.5331 70.5801 22.8129 70.3352 23.0556C70.0908 23.3031 69.8081 23.5097 69.498 23.6673C69.1838 23.8264 68.8474 23.9373 68.5001 23.9962C68.1303 24.0566 67.7565 24.0892 67.3818 24.0938C67.2066 24.0979 67.0231 24.1002 66.8449 24.1002L66.1964 24.1014L5.35887 24.1002Z" fill="black"/>
<path d="M25.6133 16.9302H22.7814L22.1014 18.9383H20.9019L23.5842 11.509H24.8304L27.5126 18.9383H26.2927L25.6133 16.9302ZM23.0747 16.0036H25.3194L24.2128 12.7447H24.1819L23.0747 16.0036Z" fill="white"/>
<path d="M33.3044 16.2301C33.3044 17.9133 32.4035 18.9947 31.0439 18.9947C30.6995 19.0127 30.357 18.9334 30.0556 18.7658C29.7542 18.5982 29.5061 18.3491 29.3397 18.0471H29.314V20.7299H28.2021V13.5215H29.2783V14.4224H29.2988C29.4729 14.1218 29.7252 13.874 30.0289 13.7054C30.3326 13.5368 30.6763 13.4537 31.0235 13.4649C32.3982 13.4649 33.3044 14.5516 33.3044 16.2301ZM32.1616 16.2301C32.1616 15.1335 31.5949 14.4125 30.7302 14.4125C29.8807 14.4125 29.3093 15.1487 29.3093 16.2301C29.3093 17.3215 29.8807 18.0524 30.7302 18.0524C31.5949 18.0524 32.1616 17.3367 32.1616 16.2301Z" fill="white"/>
<path d="M39.2654 16.2301C39.2654 17.9133 38.3645 18.9947 37.0049 18.9947C36.6605 19.0127 36.318 18.9334 36.0166 18.7658C35.7152 18.5982 35.4671 18.3491 35.3007 18.0471H35.275V20.7299H34.1631V13.5215H35.2393V14.4224H35.2598C35.4338 14.1218 35.6861 13.874 35.9898 13.7054C36.2935 13.5368 36.6373 13.4537 36.9845 13.4649C38.3592 13.4649 39.2654 14.5516 39.2654 16.2301ZM38.1226 16.2301C38.1226 15.1335 37.5559 14.4125 36.6912 14.4125C35.8417 14.4125 35.2703 15.1487 35.2703 16.2301C35.2703 17.3215 35.8417 18.0523 36.6912 18.0523C37.5559 18.0523 38.1226 17.3366 38.1226 16.2301H38.1226Z" fill="white"/>
<path d="M43.2058 16.8682C43.2881 17.6049 44.0038 18.0886 44.9819 18.0886C45.919 18.0886 46.5932 17.6049 46.5932 16.9406C46.5932 16.3639 46.1866 16.0187 45.2237 15.782L44.2609 15.5501C42.8967 15.2206 42.2634 14.5826 42.2634 13.5473C42.2634 12.2655 43.3804 11.385 44.9667 11.385C46.5365 11.385 47.6127 12.2655 47.6489 13.5473H46.5266C46.4594 12.8059 45.8465 12.3584 44.9509 12.3584C44.0552 12.3584 43.4424 12.8112 43.4424 13.4702C43.4424 13.9954 43.8338 14.3045 44.7914 14.5411L45.6099 14.7421C47.1342 15.1025 47.7675 15.7148 47.7675 16.8015C47.7675 18.1914 46.6604 19.0619 44.8995 19.0619C43.2519 19.0619 42.1395 18.2119 42.0676 16.8681L43.2058 16.8682Z" fill="white"/>
<path d="M50.1665 12.24V13.5218H51.1965V14.4023H50.1665V17.3883C50.1665 17.8522 50.3727 18.0684 50.8255 18.0684C50.9478 18.0663 51.0699 18.0577 51.1912 18.0427V18.9179C50.9877 18.9559 50.7807 18.9731 50.5737 18.9693C49.4771 18.9693 49.0494 18.5574 49.0494 17.5069V14.4023H48.2618V13.5218H49.0494V12.24H50.1665Z" fill="white"/>
<path d="M51.7953 16.2302C51.7953 14.526 52.7991 13.4551 54.3643 13.4551C55.9347 13.4551 56.9338 14.526 56.9338 16.2302C56.9338 17.9391 55.94 19.0054 54.3643 19.0054C52.7891 19.0054 51.7953 17.9391 51.7953 16.2302ZM55.8009 16.2302C55.8009 15.0612 55.2652 14.3712 54.3643 14.3712C53.4634 14.3712 52.9282 15.0664 52.9282 16.2302C52.9282 17.404 53.4634 18.0887 54.3643 18.0887C55.2652 18.0887 55.8009 17.404 55.8009 16.2302H55.8009Z" fill="white"/>
<path d="M57.8482 13.5215H58.9086V14.4434H58.9343C59.0061 14.1555 59.1748 13.901 59.412 13.7228C59.6493 13.5446 59.9407 13.4535 60.2372 13.4648C60.3653 13.4644 60.4931 13.4783 60.6181 13.5063V14.5462C60.4564 14.4968 60.2876 14.4741 60.1186 14.4791C59.9571 14.4725 59.796 14.501 59.6466 14.5625C59.4971 14.6241 59.3627 14.7173 59.2526 14.8357C59.1426 14.954 59.0594 15.0949 59.0089 15.2484C58.9584 15.402 58.9417 15.5646 58.96 15.7252V18.938H57.8482L57.8482 13.5215Z" fill="white"/>
<path d="M65.7448 17.3473C65.5952 18.3306 64.6376 19.0054 63.4125 19.0054C61.8368 19.0054 60.8588 17.9497 60.8588 16.2559C60.8588 14.557 61.842 13.4551 63.3658 13.4551C64.8643 13.4551 65.8067 14.4845 65.8067 16.1268V16.5077H61.9811V16.5749C61.9634 16.7743 61.9884 16.9751 62.0543 17.1641C62.1202 17.353 62.2256 17.5258 62.3634 17.6709C62.5012 17.816 62.6683 17.9301 62.8536 18.0057C63.0389 18.0812 63.2382 18.1165 63.4382 18.1092C63.7009 18.1338 63.9646 18.0729 64.19 17.9357C64.4153 17.7984 64.5904 17.592 64.6891 17.3473L65.7448 17.3473ZM61.9864 15.7307H64.6943C64.7043 15.5515 64.6771 15.3721 64.6145 15.2039C64.5519 15.0356 64.4552 14.8821 64.3304 14.7531C64.2057 14.624 64.0556 14.5221 63.8896 14.4537C63.7236 14.3854 63.5452 14.3521 63.3658 14.356C63.1847 14.3549 63.0052 14.3897 62.8377 14.4583C62.6701 14.527 62.5179 14.6281 62.3896 14.7559C62.2614 14.8837 62.1597 15.0357 62.0905 15.203C62.0213 15.3703 61.9859 15.5497 61.9864 15.7307V15.7307Z" fill="white"/>
<path d="M22.9358 5.91689C23.1689 5.90017 23.4028 5.93538 23.6206 6.01999C23.8384 6.10461 24.0348 6.23651 24.1955 6.4062C24.3562 6.57588 24.4772 6.77911 24.5498 7.00123C24.6224 7.22335 24.6449 7.45882 24.6155 7.69065C24.6155 8.8311 23.9991 9.48664 22.9358 9.48664H21.6464V5.91689H22.9358ZM22.2008 8.9818H22.8739C23.0404 8.99176 23.2071 8.96445 23.3618 8.90186C23.5164 8.83928 23.6552 8.74299 23.768 8.62C23.8808 8.49702 23.9647 8.35044 24.0137 8.19093C24.0626 8.03142 24.0754 7.863 24.0511 7.69793C24.0737 7.5335 24.0596 7.36613 24.0098 7.20779C23.9601 7.04945 23.876 6.90407 23.7635 6.78206C23.651 6.66006 23.5129 6.56445 23.3591 6.50209C23.2053 6.43973 23.0396 6.41216 22.8739 6.42136H22.2008V8.9818Z" fill="white"/>
<path d="M25.2425 8.1385C25.2255 7.96146 25.2458 7.78284 25.3019 7.61408C25.3581 7.44533 25.4488 7.29018 25.5685 7.15857C25.6881 7.02696 25.8339 6.92181 25.9965 6.84985C26.1592 6.77789 26.3351 6.74072 26.5129 6.74072C26.6907 6.74072 26.8666 6.77789 27.0293 6.84985C27.1919 6.92181 27.3377 7.02696 27.4573 7.15857C27.5769 7.29018 27.6677 7.44533 27.7239 7.61408C27.78 7.78284 27.8003 7.96146 27.7833 8.1385C27.8006 8.31572 27.7806 8.49459 27.7246 8.66361C27.6686 8.83263 27.5779 8.98808 27.4582 9.11994C27.3386 9.25181 27.1926 9.35718 27.0298 9.42929C26.867 9.50141 26.691 9.53866 26.5129 9.53866C26.3348 9.53866 26.1588 9.50141 25.9959 9.42929C25.8331 9.35718 25.6872 9.25181 25.5676 9.11994C25.4479 8.98808 25.3572 8.83263 25.3012 8.66361C25.2452 8.49459 25.2252 8.31572 25.2425 8.1385ZM27.2365 8.1385C27.2365 7.55455 26.9741 7.21306 26.5138 7.21306C26.0516 7.21306 25.7917 7.55455 25.7917 8.1385C25.7917 8.72713 26.0517 9.06599 26.5138 9.06599C26.9742 9.06598 27.2365 8.72478 27.2365 8.1385H27.2365Z" fill="white"/>
<path d="M31.1594 9.48667H30.6078L30.0511 7.50258H30.009L29.4546 9.48667H28.9083L28.1657 6.79272H28.705L29.1876 8.84836H29.2273L29.7811 6.79272H30.2912L30.8451 8.84836H30.8871L31.3674 6.79272H31.899L31.1594 9.48667Z" fill="white"/>
<path d="M32.5261 6.79269H33.0379V7.22065H33.0776C33.145 7.06694 33.2587 6.93809 33.4028 6.85206C33.5469 6.76602 33.7142 6.72709 33.8815 6.74069C34.0126 6.73083 34.1442 6.7506 34.2666 6.79852C34.389 6.84644 34.4991 6.92128 34.5886 7.01751C34.6782 7.11373 34.7449 7.22888 34.7839 7.35441C34.8229 7.47993 34.8332 7.61263 34.814 7.74266V9.48661H34.2823V7.87617C34.2823 7.44325 34.0942 7.22795 33.701 7.22795C33.612 7.22381 33.5231 7.23895 33.4405 7.27236C33.3579 7.30576 33.2836 7.35662 33.2225 7.42147C33.1614 7.48631 33.115 7.56359 33.0866 7.64803C33.0581 7.73246 33.0483 7.82205 33.0577 7.91064V9.48664H32.5261L32.5261 6.79269Z" fill="white"/>
<path d="M35.6603 5.74097H36.1919V9.48655H35.6603V5.74097Z" fill="white"/>
<path d="M36.9277 8.13855C36.9108 7.9615 36.931 7.78286 36.9872 7.61411C37.0433 7.44535 37.1341 7.29019 37.2538 7.15858C37.3734 7.02696 37.5192 6.92181 37.6819 6.84985C37.8445 6.77789 38.0204 6.74072 38.1983 6.74072C38.3761 6.74072 38.552 6.77789 38.7147 6.84985C38.8773 6.92181 39.0231 7.02696 39.1428 7.15858C39.2624 7.29019 39.3532 7.44535 39.4094 7.61411C39.4655 7.78286 39.4858 7.9615 39.4689 8.13855C39.4861 8.31577 39.4661 8.49465 39.41 8.66367C39.354 8.83269 39.2633 8.98813 39.1436 9.11999C39.024 9.25185 38.878 9.35723 38.7152 9.42933C38.5524 9.50144 38.3763 9.53869 38.1983 9.53869C38.0202 9.53869 37.8441 9.50144 37.6813 9.42933C37.5185 9.35723 37.3726 9.25185 37.2529 9.11999C37.1333 8.98813 37.0425 8.83269 36.9865 8.66367C36.9305 8.49465 36.9105 8.31577 36.9277 8.13855ZM38.9217 8.13855C38.9217 7.5546 38.6594 7.21311 38.199 7.21311C37.7369 7.21311 37.4769 7.5546 37.4769 8.13855C37.4769 8.72718 37.7369 9.06604 38.199 9.06604C38.6594 9.06603 38.9217 8.72483 38.9217 8.13855H38.9217Z" fill="white"/>
<path d="M40.0312 8.72481C40.0312 8.23989 40.3923 7.96033 41.0332 7.9206L41.7629 7.87853V7.64601C41.7629 7.36148 41.5748 7.20081 41.2114 7.20081C40.9146 7.20081 40.7089 7.30977 40.6499 7.50024H40.1352C40.1895 7.03752 40.6248 6.74072 41.2359 6.74072C41.9113 6.74072 42.2922 7.07695 42.2922 7.64601V9.48666H41.7804V9.10808H41.7383C41.653 9.24388 41.5331 9.35459 41.3909 9.4289C41.2487 9.50321 41.0894 9.53846 40.9292 9.53105C40.8161 9.54281 40.7018 9.53075 40.5936 9.49563C40.4855 9.46051 40.3859 9.40312 40.3013 9.32716C40.2167 9.2512 40.1489 9.15835 40.1024 9.0546C40.0559 8.95086 40.0316 8.83851 40.0312 8.72481ZM41.7629 8.49461V8.26939L41.105 8.31146C40.734 8.33628 40.5658 8.46248 40.5658 8.69997C40.5658 8.94243 40.7761 9.08353 41.0653 9.08353C41.1501 9.09211 41.2357 9.08355 41.317 9.05837C41.3984 9.03319 41.4739 8.9919 41.5389 8.93695C41.604 8.88201 41.6574 8.81453 41.6959 8.73854C41.7343 8.66255 41.7571 8.57959 41.7629 8.49461Z" fill="white"/>
<path d="M42.9888 8.13842C42.9888 7.28718 43.4264 6.74792 44.107 6.74792C44.2754 6.74016 44.4425 6.78049 44.5888 6.86418C44.735 6.94787 44.8545 7.07148 44.9331 7.22055H44.9729V5.74097H45.5045V9.48655H44.9951V9.06092H44.953C44.8683 9.20899 44.7447 9.33106 44.5956 9.41391C44.4464 9.49676 44.2775 9.53723 44.107 9.53095C43.4217 9.53098 42.9888 8.99171 42.9888 8.13842ZM43.538 8.13842C43.538 8.70981 43.8073 9.05364 44.2578 9.05364C44.7059 9.05364 44.9828 8.70485 44.9828 8.14076C44.9828 7.5793 44.703 7.22554 44.2578 7.22554C43.8102 7.22554 43.538 7.5717 43.538 8.13842H43.538Z" fill="white"/>
<path d="M47.7085 8.1385C47.6915 7.96146 47.7118 7.78284 47.7679 7.61408C47.8241 7.44533 47.9149 7.29018 48.0345 7.15857C48.1541 7.02696 48.2999 6.92181 48.4625 6.84985C48.6252 6.77789 48.8011 6.74072 48.9789 6.74072C49.1567 6.74072 49.3326 6.77789 49.4953 6.84985C49.6579 6.92181 49.8037 7.02696 49.9233 7.15857C50.0429 7.29018 50.1337 7.44533 50.1899 7.61408C50.246 7.78284 50.2663 7.96146 50.2493 8.1385C50.2666 8.31572 50.2466 8.49459 50.1906 8.66361C50.1346 8.83263 50.0439 8.98808 49.9242 9.11994C49.8046 9.25181 49.6586 9.35718 49.4958 9.42929C49.333 9.50141 49.157 9.53866 48.9789 9.53866C48.8008 9.53866 48.6248 9.50141 48.462 9.42929C48.2991 9.35718 48.1532 9.25181 48.0336 9.11994C47.9139 8.98808 47.8232 8.83263 47.7672 8.66361C47.7112 8.49459 47.6912 8.31572 47.7085 8.1385ZM49.7025 8.1385C49.7025 7.55455 49.4402 7.21306 48.9798 7.21306C48.5176 7.21306 48.2577 7.55455 48.2577 8.1385C48.2577 8.72713 48.5177 9.06599 48.9798 9.06599C49.4402 9.06598 49.7025 8.72478 49.7025 8.1385Z" fill="white"/>
<path d="M50.9603 6.79269H51.4721V7.22065H51.5119C51.5793 7.06694 51.6929 6.93809 51.837 6.85206C51.9811 6.76602 52.1485 6.72709 52.3158 6.74069C52.4469 6.73083 52.5785 6.7506 52.7009 6.79852C52.8233 6.84644 52.9333 6.92128 53.0229 7.01751C53.1124 7.11373 53.1792 7.22888 53.2182 7.35441C53.2572 7.47993 53.2675 7.61263 53.2482 7.74266V9.48661H52.7166V7.87617C52.7166 7.44325 52.5284 7.22795 52.1352 7.22795C52.0462 7.22381 51.9574 7.23895 51.8748 7.27236C51.7922 7.30576 51.7178 7.35662 51.6567 7.42147C51.5956 7.48631 51.5493 7.56359 51.5208 7.64803C51.4924 7.73246 51.4826 7.82205 51.492 7.91064V9.48664H50.9603V6.79269Z" fill="white"/>
<path d="M56.2523 6.12183V6.80481H56.836V7.25263H56.2523V8.63787C56.2523 8.92006 56.3686 9.04363 56.6333 9.04363C56.701 9.04341 56.7687 9.03931 56.836 9.03136V9.47421C56.7405 9.49129 56.6438 9.50038 56.5468 9.50138C55.9555 9.50138 55.7201 9.29338 55.7201 8.77399V7.25261H55.2924V6.80478H55.7201V6.12183H56.2523Z" fill="white"/>
<path d="M57.5645 5.74097H58.0914V7.22553H58.1335C58.2042 7.07039 58.321 6.94081 58.468 6.85445C58.615 6.76809 58.785 6.72916 58.9549 6.74295C59.0853 6.73585 59.2157 6.75762 59.3367 6.8067C59.4577 6.85579 59.5664 6.93097 59.655 7.0269C59.7436 7.12282 59.81 7.23712 59.8493 7.36164C59.8887 7.48616 59.9001 7.61783 59.8827 7.74726V9.48655H59.3505V7.87842C59.3505 7.44812 59.1501 7.2302 58.7744 7.2302C58.6831 7.2227 58.5912 7.23527 58.5051 7.26701C58.4191 7.29875 58.3411 7.3489 58.2765 7.41395C58.2119 7.479 58.1622 7.55739 58.1311 7.64362C58.0999 7.72986 58.088 7.82185 58.0961 7.91318V9.48654H57.5645L57.5645 5.74097Z" fill="white"/>
<path d="M62.9806 8.75933C62.9083 9.00554 62.7518 9.21851 62.5384 9.36099C62.325 9.50346 62.0683 9.56637 61.8132 9.5387C61.6358 9.54339 61.4594 9.5094 61.2963 9.43908C61.1333 9.36877 60.9875 9.26382 60.8691 9.13152C60.7507 8.99922 60.6625 8.84274 60.6107 8.67294C60.5588 8.50314 60.5445 8.32409 60.5688 8.14821C60.5452 7.97179 60.5597 7.79235 60.6115 7.62204C60.6632 7.45173 60.7509 7.29453 60.8687 7.16107C60.9865 7.02761 61.1316 6.92102 61.2941 6.84851C61.4567 6.77599 61.6329 6.73925 61.8109 6.74077C62.5605 6.74077 63.0127 7.25288 63.0127 8.09883V8.28435H61.1104V8.31414C61.1021 8.413 61.1145 8.51251 61.1469 8.60629C61.1793 8.70007 61.2309 8.78604 61.2984 8.8587C61.366 8.93137 61.448 8.98911 61.5391 9.02824C61.6303 9.06736 61.7286 9.087 61.8278 9.0859C61.955 9.10117 62.0839 9.07827 62.198 9.02011C62.3121 8.96196 62.4064 8.87117 62.4688 8.75931L62.9806 8.75933ZM61.1104 7.89114H62.4711C62.4778 7.80073 62.4655 7.70991 62.435 7.62453C62.4045 7.53914 62.3565 7.46108 62.2941 7.39536C62.2316 7.32963 62.1561 7.2777 62.0724 7.2429C61.9887 7.20809 61.8986 7.19119 61.808 7.19327C61.716 7.19211 61.6248 7.20937 61.5396 7.24404C61.4544 7.27871 61.377 7.33007 61.312 7.39511C61.247 7.46015 61.1957 7.53755 61.1611 7.62274C61.1264 7.70793 61.1092 7.79919 61.1104 7.89114H61.1104Z" fill="white"/>
<path d="M15.1259 12.8388C15.1323 12.3395 15.265 11.8499 15.5115 11.4156C15.758 10.9813 16.1103 10.6164 16.5358 10.3548C16.2655 9.96884 15.909 9.6512 15.4945 9.42711C15.08 9.20303 14.6189 9.07869 14.148 9.06395C13.1434 8.9585 12.1694 9.66511 11.6575 9.66511C11.1356 9.66511 10.3474 9.07442 9.49863 9.09188C8.94961 9.10962 8.41456 9.26927 7.94559 9.55528C7.47663 9.84128 7.08974 10.2439 6.82264 10.7239C5.66559 12.7271 6.52864 15.6712 7.63699 17.2905C8.19153 18.0834 8.83961 18.9691 9.68763 18.9377C10.5175 18.9033 10.8274 18.4085 11.8291 18.4085C12.8214 18.4085 13.1122 18.9377 13.9774 18.9177C14.8679 18.9033 15.4289 18.1213 15.964 17.3209C16.3624 16.7559 16.669 16.1315 16.8724 15.4707C16.3551 15.2519 15.9136 14.8857 15.603 14.4177C15.2924 13.9496 15.1265 13.4005 15.1259 12.8388Z" fill="white"/>
<path d="M13.4917 7.99896C13.9772 7.41613 14.2164 6.66699 14.1585 5.91064C13.4167 5.98855 12.7315 6.34306 12.2395 6.90353C11.9989 7.17734 11.8146 7.49587 11.6972 7.84094C11.5798 8.186 11.5316 8.55081 11.5552 8.91453C11.9262 8.91835 12.2933 8.83794 12.6287 8.67935C12.9641 8.52075 13.2592 8.28812 13.4917 7.99896Z" fill="white"/>
</g>
<defs>
<clipPath id="clip0_1_3423">
<rect width="71.5908" height="23.9306" fill="white" transform="translate(0.30426 0.693604)"/>
</clipPath>
</defs>
</svg>
