<svg width="16" height="16" viewBox="0 0 16 16" fill="none" xmlns="http://www.w3.org/2000/svg">
<path d="M3.25556 5.47146C3.21384 5.42979 3.18075 5.3803 3.15817 5.32583C3.13559 5.27136 3.12396 5.21297 3.12396 5.154C3.12396 5.09504 3.13559 5.03665 3.15817 4.98218C3.18075 4.92771 3.21384 4.87822 3.25556 4.83655L5.05035 3.04175C5.11311 2.97893 5.19309 2.93614 5.28018 2.9188C5.36726 2.90146 5.45753 2.91034 5.53957 2.94433C5.6216 2.97832 5.6917 3.03589 5.741 3.10974C5.7903 3.18359 5.81658 3.27041 5.81651 3.35921V4.7053H12.547C12.666 4.7053 12.7801 4.75258 12.8643 4.83673C12.9484 4.92087 12.9957 5.035 12.9957 5.154C12.9957 5.27301 12.9484 5.38713 12.8643 5.47128C12.7801 5.55543 12.666 5.6027 12.547 5.6027H5.81651V6.9488C5.81658 7.03759 5.7903 7.12441 5.741 7.19827C5.6917 7.27212 5.6216 7.32969 5.53957 7.36368C5.45753 7.39767 5.36726 7.40655 5.28018 7.38921C5.19309 7.37187 5.11311 7.32908 5.05035 7.26625L3.25556 5.47146ZM12.8644 10.2209L11.0696 8.42614C11.0069 8.36332 10.9269 8.32053 10.8398 8.30318C10.7527 8.28584 10.6625 8.29473 10.5804 8.32872C10.4984 8.36271 10.4283 8.42027 10.379 8.49413C10.3297 8.56798 10.3034 8.6548 10.3035 8.74359V10.0897H3.57301C3.45401 10.0897 3.33988 10.137 3.25574 10.2211C3.17159 10.3053 3.12432 10.4194 3.12432 10.5384C3.12432 10.6574 3.17159 10.7715 3.25574 10.8557C3.33988 10.9398 3.45401 10.9871 3.57301 10.9871H10.3035V12.3332C10.3034 12.422 10.3297 12.5088 10.379 12.5827C10.4283 12.6565 10.4984 12.7141 10.5804 12.7481C10.6625 12.7821 10.7527 12.7909 10.8398 12.7736C10.9269 12.7563 11.0069 12.7135 11.0696 12.6506L12.8644 10.8558C12.9062 10.8142 12.9393 10.7647 12.9618 10.7102C12.9844 10.6557 12.996 10.5974 12.996 10.5384C12.996 10.4794 12.9844 10.421 12.9618 10.3666C12.9393 10.3121 12.9062 10.2626 12.8644 10.2209Z" fill="#9A32AA"/>
</svg>
