<svg width="11" height="11" viewBox="0 0 11 11" fill="none" xmlns="http://www.w3.org/2000/svg">
<path d="M5.49258 1.4436C4.72346 1.4436 3.97161 1.67167 3.33212 2.09897C2.69262 2.52627 2.19419 3.13361 1.89986 3.84418C1.60554 4.55475 1.52853 5.33664 1.67857 6.09098C1.82862 6.84532 2.19899 7.53822 2.74283 8.08207C3.28668 8.62592 3.97959 8.99628 4.73392 9.14633C5.48826 9.29638 6.27015 9.21937 6.98073 8.92504C7.6913 8.63071 8.29863 8.13228 8.72593 7.49278C9.15323 6.85329 9.3813 6.10144 9.3813 5.33233C9.38021 4.30131 8.97016 3.31283 8.24112 2.58379C7.51207 1.85475 6.5236 1.44469 5.49258 1.4436ZM5.49258 8.62278C4.84178 8.62278 4.20561 8.4298 3.6645 8.06824C3.12338 7.70668 2.70164 7.19278 2.45259 6.59153C2.20354 5.99028 2.13838 5.32868 2.26534 4.69039C2.39231 4.0521 2.70569 3.4658 3.16587 3.00562C3.62605 2.54544 4.21235 2.23206 4.85064 2.10509C5.48893 1.97813 6.15053 2.04329 6.75178 2.29234C7.35303 2.54139 7.86693 2.96313 8.22849 3.50425C8.59005 4.04536 8.78303 4.68154 8.78303 5.33233C8.78204 6.20471 8.43505 7.04107 7.81819 7.65794C7.20132 8.2748 6.36496 8.62179 5.49258 8.62278ZM7.19987 5.12069C7.22769 5.14847 7.24975 5.18146 7.2648 5.21778C7.27986 5.25409 7.28761 5.29302 7.28761 5.33233C7.28761 5.37164 7.27986 5.41056 7.2648 5.44688C7.24975 5.48319 7.22769 5.51618 7.19987 5.54396L6.00335 6.74049C5.94722 6.79662 5.87109 6.82816 5.79171 6.82816C5.71233 6.82816 5.6362 6.79662 5.58007 6.74049C5.52394 6.68436 5.49241 6.60824 5.49241 6.52886C5.49241 6.44948 5.52394 6.37335 5.58007 6.31722L6.26621 5.63146H3.99691C3.91758 5.63146 3.84149 5.59994 3.78539 5.54385C3.7293 5.48775 3.69778 5.41166 3.69778 5.33233C3.69778 5.25299 3.7293 5.17691 3.78539 5.12081C3.84149 5.06471 3.91758 5.03319 3.99691 5.03319H6.26621L5.58007 4.34743C5.52394 4.2913 5.49241 4.21518 5.49241 4.1358C5.49241 4.05642 5.52394 3.98029 5.58007 3.92416C5.6362 3.86803 5.71233 3.8365 5.79171 3.8365C5.87109 3.8365 5.94722 3.86803 6.00335 3.92416L7.19987 5.12069Z" fill="#9A32AA"/>
</svg>
