<svg width="15" height="15" viewBox="0 0 15 15" fill="none" xmlns="http://www.w3.org/2000/svg">
<path d="M9.65495 5.56319V8.25538C9.65495 8.37439 9.60768 8.48851 9.52353 8.57266C9.43938 8.65681 9.32525 8.70408 9.20625 8.70408C9.08725 8.70408 8.97312 8.65681 8.88897 8.57266C8.80482 8.48851 8.75755 8.37439 8.75755 8.25538V6.64624L5.93411 9.47024C5.89243 9.51192 5.84293 9.54499 5.78847 9.56756C5.734 9.59012 5.67562 9.60173 5.61666 9.60173C5.5577 9.60173 5.49932 9.59012 5.44486 9.56756C5.39039 9.54499 5.34089 9.51192 5.29921 9.47024C5.25752 9.42855 5.22445 9.37906 5.20189 9.32459C5.17932 9.27012 5.16771 9.21174 5.16771 9.15278C5.16771 9.09382 5.17932 9.03545 5.20189 8.98098C5.22445 8.92651 5.25752 8.87702 5.29921 8.83533L8.1232 6.01189H6.51406C6.39506 6.01189 6.28093 5.96462 6.19678 5.88047C6.11263 5.79632 6.06536 5.68219 6.06536 5.56319C6.06536 5.44419 6.11263 5.33006 6.19678 5.24591C6.28093 5.16177 6.39506 5.11449 6.51406 5.11449H9.20625C9.32525 5.11449 9.43938 5.16177 9.52353 5.24591C9.60768 5.33006 9.65495 5.44419 9.65495 5.56319ZM13.2445 7.35799C13.2445 8.51166 12.9024 9.63943 12.2615 10.5987C11.6205 11.5579 10.7095 12.3056 9.64368 12.7471C8.57782 13.1885 7.40498 13.3041 6.27348 13.079C5.14197 12.8539 4.10261 12.2984 3.28684 11.4826C2.47107 10.6668 1.91552 9.62747 1.69045 8.49596C1.46538 7.36446 1.5809 6.19162 2.02239 5.12576C2.46388 4.0599 3.21152 3.1489 4.17077 2.50795C5.13001 1.86701 6.25778 1.5249 7.41146 1.5249C8.95798 1.52654 10.4407 2.14162 11.5343 3.23518C12.6278 4.32874 13.2429 5.81146 13.2445 7.35799ZM12.3471 7.35799C12.3471 6.3818 12.0577 5.42754 11.5153 4.61587C10.973 3.8042 10.2021 3.17158 9.30026 2.79801C8.39838 2.42444 7.40598 2.32669 6.44855 2.51714C5.49112 2.70758 4.61167 3.17766 3.9214 3.86793C3.23113 4.5582 2.76105 5.43765 2.57061 6.39508C2.38016 7.35251 2.47791 8.34491 2.85148 9.24679C3.22505 10.1487 3.85767 10.9195 4.66934 11.4619C5.481 12.0042 6.43527 12.2937 7.41146 12.2937C8.72003 12.2922 9.97457 11.7717 10.8999 10.8464C11.8252 9.92111 12.3457 8.66656 12.3471 7.35799Z" fill="#D946EF"/>
</svg>
