<svg width="25" height="25" viewBox="0 0 25 25" fill="none" xmlns="http://www.w3.org/2000/svg">
<path d="M22.0603 12.291C22.0603 12.3387 22.0603 12.3845 22.0603 12.4331C22.0286 13.7661 21.5341 15.2823 19.4429 15.2823C17.2798 15.2823 16.8255 13.6558 16.8255 12.291V8.55183C16.8258 8.44931 16.8049 8.34784 16.7643 8.25373C16.7236 8.15961 16.6641 8.07485 16.5893 8.00472C16.5145 7.93459 16.4261 7.88058 16.3296 7.84605C16.233 7.81152 16.1304 7.79721 16.0282 7.804C15.8355 7.82054 15.6563 7.90952 15.5267 8.053C15.3971 8.19647 15.3268 8.38376 15.3299 8.57707V8.95099C14.6548 8.34592 13.8122 7.95955 12.9132 7.84277C12.0142 7.72598 11.1009 7.88426 10.2936 8.29675C9.48628 8.70924 8.82287 9.35659 8.39074 10.1535C7.9586 10.9505 7.778 11.8596 7.87274 12.7613C7.96747 13.6629 8.3331 14.5146 8.92144 15.2043C9.50979 15.8941 10.2933 16.3894 11.1687 16.6251C12.0441 16.8608 12.9703 16.8257 13.8254 16.5246C14.6805 16.2235 15.4244 15.6705 15.959 14.9383C16.0524 15.1018 16.158 15.258 16.2749 15.4057C16.7769 16.0301 17.7332 16.778 19.4429 16.778C19.7317 16.7789 20.02 16.7555 20.3048 16.7079C20.3752 16.6961 20.4475 16.7048 20.5132 16.7328C20.5788 16.7609 20.6351 16.8071 20.6753 16.8661C20.7155 16.9251 20.738 16.9943 20.7401 17.0657C20.7422 17.137 20.7238 17.2075 20.6871 17.2687C19.8082 18.743 18.5548 19.9585 17.0542 20.7917C15.5536 21.6249 13.8593 22.0462 12.1432 22.0128C7.02239 21.91 2.82238 17.7932 2.62421 12.6752C2.57352 11.3836 2.78091 10.0948 3.23425 8.88432C3.6876 7.67382 4.37779 6.56588 5.26444 5.62531C6.1511 4.68474 7.21643 3.93044 8.3981 3.40652C9.57976 2.8826 10.854 2.59959 12.1464 2.57404C13.4388 2.5485 14.7232 2.78093 15.9247 3.25774C17.1261 3.73455 18.2204 4.44617 19.1436 5.35096C20.0667 6.25575 20.8001 7.33555 21.301 8.52719C21.8018 9.71883 22.0599 10.9984 22.0603 12.291ZM9.34721 12.291C9.34721 12.8826 9.52265 13.461 9.85134 13.9529C10.18 14.4448 10.6472 14.8282 11.1938 15.0546C11.7404 15.281 12.3419 15.3403 12.9221 15.2248C13.5024 15.1094 14.0354 14.8245 14.4537 14.4062C14.8721 13.9878 15.157 13.4548 15.2724 12.8746C15.3878 12.2943 15.3286 11.6929 15.1022 11.1463C14.8758 10.5997 14.4923 10.1325 14.0004 9.80379C13.5085 9.4751 12.9302 9.29966 12.3385 9.29966C11.5452 9.29966 10.7843 9.61482 10.2234 10.1758C9.66237 10.7368 9.34721 11.4976 9.34721 12.291Z" fill="#9A32AA"/>
</svg>
