<svg width="15" height="15" viewBox="0 0 15 15" fill="none" xmlns="http://www.w3.org/2000/svg">
<g clip-path="url(#clip0_1_3113)">
<path d="M14.4233 11.7399C14.4233 11.8589 14.3761 11.973 14.2919 12.0572C14.2078 12.1413 14.0936 12.1886 13.9746 12.1886H1.41106C1.29206 12.1886 1.17793 12.1413 1.09379 12.0572C1.00964 11.973 0.962364 11.8589 0.962364 11.7399C0.962364 11.6209 1.00964 11.5068 1.09379 11.4226C1.17793 11.3385 1.29206 11.2912 1.41106 11.2912H13.9746C14.0936 11.2912 14.2078 11.3385 14.2919 11.4226C14.3761 11.5068 14.4233 11.6209 14.4233 11.7399ZM1.42789 5.5804C1.4012 5.4863 1.40599 5.38606 1.44153 5.29493C1.47707 5.20381 1.54141 5.12679 1.62476 5.07561L7.45784 1.48602C7.52852 1.44256 7.60987 1.41956 7.69285 1.41956C7.77582 1.41956 7.85717 1.44256 7.92785 1.48602L13.7609 5.07561C13.8443 5.12673 13.9087 5.20369 13.9443 5.29478C13.9799 5.38587 13.9848 5.48609 13.9582 5.5802C13.9316 5.67431 13.8749 5.75715 13.7969 5.81611C13.7189 5.87507 13.6237 5.90693 13.5259 5.90683H12.1798V9.49642H13.0772C13.1962 9.49642 13.3104 9.54369 13.3945 9.62784C13.4787 9.71198 13.5259 9.82611 13.5259 9.94511C13.5259 10.0641 13.4787 10.1782 13.3945 10.2624C13.3104 10.3465 13.1962 10.3938 13.0772 10.3938H2.30846C2.18946 10.3938 2.07533 10.3465 1.99118 10.2624C1.90704 10.1782 1.85976 10.0641 1.85976 9.94511C1.85976 9.82611 1.90704 9.71198 1.99118 9.62784C2.07533 9.54369 2.18946 9.49642 2.30846 9.49642H3.20586V5.90683H1.85976C1.76205 5.90686 1.667 5.875 1.58905 5.81608C1.5111 5.75716 1.45452 5.67441 1.42789 5.5804ZM8.59024 9.04772C8.59024 9.16672 8.63752 9.28085 8.72166 9.365C8.80581 9.44914 8.91994 9.49642 9.03894 9.49642C9.15795 9.49642 9.27207 9.44914 9.35622 9.365C9.44037 9.28085 9.48764 9.16672 9.48764 9.04772V6.35552C9.48764 6.23652 9.44037 6.12239 9.35622 6.03825C9.27207 5.9541 9.15795 5.90683 9.03894 5.90683C8.91994 5.90683 8.80581 5.9541 8.72166 6.03825C8.63752 6.12239 8.59024 6.23652 8.59024 6.35552V9.04772ZM5.89805 9.04772C5.89805 9.16672 5.94532 9.28085 6.02947 9.365C6.11362 9.44914 6.22775 9.49642 6.34675 9.49642C6.46575 9.49642 6.57988 9.44914 6.66403 9.365C6.74818 9.28085 6.79545 9.16672 6.79545 9.04772V6.35552C6.79545 6.23652 6.74818 6.12239 6.66403 6.03825C6.57988 5.9541 6.46575 5.90683 6.34675 5.90683C6.22775 5.90683 6.11362 5.9541 6.02947 6.03825C5.94532 6.12239 5.89805 6.23652 5.89805 6.35552V9.04772Z" fill="#9A32AA"/>
</g>
<defs>
<clipPath id="clip0_1_3113">
<rect width="14.3584" height="14.3584" fill="white" transform="translate(0.512871 0.0738525)"/>
</clipPath>
</defs>
</svg>
