<svg width="16" height="15" viewBox="0 0 16 15" fill="none" xmlns="http://www.w3.org/2000/svg">
<path d="M8.16066 1.53223C7.00699 1.53223 5.87922 1.87433 4.91997 2.51528C3.96073 3.15623 3.21309 4.06723 2.7716 5.13309C2.3301 6.19894 2.21459 7.37178 2.43966 8.50329C2.66473 9.6348 3.22028 10.6742 4.03605 11.4899C4.85182 12.3057 5.89118 12.8612 7.02268 13.0863C8.15419 13.3114 9.32703 13.1959 10.3929 12.7544C11.4587 12.3129 12.3697 11.5652 13.0107 10.606C13.6516 9.64675 13.9937 8.51899 13.9937 7.36531C13.9921 5.81878 13.377 4.33606 12.2835 3.2425C11.1899 2.14894 9.70719 1.53386 8.16066 1.53223ZM8.16066 12.301C7.18448 12.301 6.23021 12.0115 5.41854 11.4692C4.60687 10.9268 3.97425 10.156 3.60068 9.25412C3.22711 8.35224 3.12937 7.35984 3.31981 6.40241C3.51026 5.44498 3.98034 4.56552 4.67061 3.87525C5.36087 3.18499 6.24033 2.71491 7.19776 2.52446C8.15519 2.33402 9.14759 2.43176 10.0495 2.80533C10.9513 3.1789 11.7222 3.81152 12.2645 4.62319C12.8069 5.43486 13.0963 6.38912 13.0963 7.36531C13.0949 8.67388 12.5744 9.92843 11.6491 10.8537C10.7238 11.779 9.46923 12.2995 8.16066 12.301ZM10.7216 6.15046C10.7633 6.19213 10.7964 6.24162 10.819 6.29609C10.8416 6.35056 10.8532 6.40895 10.8532 6.46791C10.8532 6.52688 10.8416 6.58527 10.819 6.63974C10.7964 6.69421 10.7633 6.7437 10.7216 6.78537L8.47812 9.02886C8.43645 9.07058 8.38696 9.10368 8.33249 9.12626C8.27802 9.14884 8.21963 9.16046 8.16066 9.16046C8.1017 9.16046 8.04331 9.14884 7.98884 9.12626C7.93437 9.10368 7.88488 9.07058 7.84321 9.02886L5.59971 6.78537C5.51552 6.70117 5.46822 6.58698 5.46822 6.46791C5.46822 6.34884 5.51552 6.23465 5.59971 6.15046C5.68391 6.06626 5.7981 6.01896 5.91717 6.01896C6.03624 6.01896 6.15043 6.06626 6.23462 6.15046L8.16066 8.07706L10.0867 6.15046C10.1284 6.10874 10.1779 6.07564 10.2323 6.05306C10.2868 6.03048 10.3452 6.01886 10.4042 6.01886C10.4631 6.01886 10.5215 6.03048 10.576 6.05306C10.6305 6.07564 10.6799 6.10874 10.7216 6.15046Z" fill="#717171"/>
</svg>
