<svg width="15" height="16" viewBox="0 0 15 16" fill="none" xmlns="http://www.w3.org/2000/svg">
<path d="M10.3638 1.58203H4.9794C4.62239 1.58203 4.28001 1.72385 4.02756 1.97629C3.77512 2.22874 3.6333 2.57112 3.6333 2.92813V12.7995C3.6333 13.1565 3.77512 13.4989 4.02756 13.7513C4.28001 14.0038 4.62239 14.1456 4.9794 14.1456H10.3638C10.7208 14.1456 11.0632 14.0038 11.3156 13.7513C11.5681 13.4989 11.7099 13.1565 11.7099 12.7995V2.92813C11.7099 2.57112 11.5681 2.22874 11.3156 1.97629C11.0632 1.72385 10.7208 1.58203 10.3638 1.58203ZM7.67159 4.72292C7.53847 4.72292 7.40835 4.68345 7.29766 4.60949C7.18698 4.53554 7.10072 4.43042 7.04977 4.30744C6.99883 4.18446 6.9855 4.04913 7.01147 3.91857C7.03744 3.78801 7.10155 3.66809 7.19567 3.57396C7.2898 3.47983 7.40973 3.41573 7.54028 3.38976C7.67084 3.36379 7.80617 3.37712 7.92915 3.42806C8.05214 3.479 8.15725 3.56527 8.23121 3.67595C8.30516 3.78663 8.34464 3.91676 8.34464 4.04987C8.34464 4.22838 8.27373 4.39957 8.14751 4.52579C8.02129 4.65201 7.85009 4.72292 7.67159 4.72292Z" fill="#9A32AA"/>
</svg>
