<svg width="21" height="20" viewBox="0 0 21 20" fill="none" xmlns="http://www.w3.org/2000/svg">
<path d="M18.3037 9.7453C18.3013 11.6461 17.6038 13.4805 16.3428 14.9028C15.0818 16.3252 13.3442 17.2373 11.4573 17.4674C11.4153 17.4722 11.3727 17.468 11.3325 17.4551C11.2922 17.4422 11.2551 17.4209 11.2237 17.3926C11.1922 17.3644 11.1671 17.3298 11.15 17.2911C11.1329 17.2524 11.1242 17.2106 11.1245 17.1683V11.5401H12.9193C13.0013 11.5403 13.0825 11.5236 13.1578 11.4911C13.2331 11.4586 13.3009 11.4109 13.357 11.3511C13.4131 11.2913 13.4563 11.2206 13.4839 11.1433C13.5116 11.0661 13.523 10.984 13.5176 10.9022C13.5044 10.7484 13.4334 10.6052 13.3189 10.5016C13.2045 10.3979 13.055 10.3415 12.9006 10.3436H11.1245V8.54877C11.1245 8.23143 11.2506 7.92709 11.475 7.7027C11.6994 7.4783 12.0037 7.35224 12.321 7.35224H13.5176C13.5996 7.35242 13.6808 7.33574 13.7561 7.30322C13.8314 7.27071 13.8992 7.22306 13.9553 7.16324C14.0114 7.10342 14.0546 7.0327 14.0822 6.95548C14.1098 6.87825 14.1213 6.79617 14.1158 6.71434C14.1026 6.56024 14.0314 6.41689 13.9166 6.31321C13.8019 6.20953 13.652 6.15325 13.4974 6.15571H12.321C11.6864 6.15571 11.0777 6.40784 10.6289 6.85662C10.1801 7.30541 9.92799 7.91409 9.92799 8.54877V10.3436H8.13319C8.05118 10.3434 7.97 10.3601 7.89471 10.3926C7.81941 10.4251 7.75161 10.4727 7.6955 10.5326C7.6394 10.5924 7.59619 10.6631 7.56857 10.7403C7.54094 10.8176 7.52949 10.8996 7.53493 10.9815C7.54816 11.1356 7.61935 11.2789 7.73412 11.3826C7.8489 11.4863 7.99873 11.5426 8.15338 11.5401H9.92799V17.1698C9.92824 17.212 9.91956 17.2538 9.90252 17.2924C9.88547 17.331 9.86044 17.3656 9.82908 17.3938C9.79772 17.4221 9.76073 17.4434 9.72055 17.4563C9.68037 17.4693 9.63791 17.4735 9.59595 17.4689C7.65858 17.233 5.8804 16.2783 4.61335 14.7938C3.34631 13.3093 2.68276 11.4033 2.75404 9.4529C2.90361 5.41461 6.17462 2.13163 10.2159 1.97459C11.2622 1.93406 12.3059 2.10497 13.2846 2.4771C14.2633 2.84923 15.1569 3.41494 15.912 4.14038C16.667 4.86582 17.268 5.73609 17.6789 6.69914C18.0899 7.66219 18.3024 8.69823 18.3037 9.7453Z" fill="#ADADAD"/>
</svg>
