<svg width="15" height="15" viewBox="0 0 15 15" fill="none" xmlns="http://www.w3.org/2000/svg">
<path d="M7.49648 1.41968C6.3428 1.41968 5.21504 1.76178 4.25579 2.40273C3.29654 3.04368 2.5489 3.95468 2.10741 5.02054C1.66592 6.08639 1.5504 7.25923 1.77547 8.39074C2.00055 9.52225 2.55609 10.5616 3.37186 11.3774C4.18764 12.1931 5.22699 12.7487 6.3585 12.9738C7.49001 13.1988 8.66285 13.0833 9.7287 12.6418C10.7946 12.2003 11.7056 11.4527 12.3465 10.4934C12.9875 9.5342 13.3296 8.40644 13.3296 7.25276C13.3279 5.70623 12.7128 4.22351 11.6193 3.12995C10.5257 2.03639 9.04301 1.42131 7.49648 1.41968ZM12.4322 7.25276C12.4327 7.88598 12.3108 8.51332 12.0732 9.10028L9.5661 7.55844C9.4595 7.49266 9.34026 7.45004 9.21612 7.43336L7.9362 7.26061C7.75984 7.23762 7.58061 7.26718 7.42097 7.3456C7.26134 7.42402 7.12839 7.54781 7.0388 7.70146H6.54972L6.33659 7.26061C6.27767 7.13786 6.19144 7.03022 6.0845 6.94593C5.97756 6.86165 5.85275 6.80295 5.71963 6.77434L5.27093 6.67731L5.70953 5.90667H6.64675C6.79841 5.90637 6.94754 5.86778 7.08031 5.79449L7.76738 5.41534C7.82774 5.38169 7.88418 5.34144 7.93564 5.29531L9.44495 3.93015C9.59628 3.79453 9.69685 3.61139 9.73009 3.41093C9.76333 3.21047 9.72725 3.00467 9.6278 2.82747L9.6076 2.79101C10.4522 3.19148 11.1658 3.82324 11.6658 4.61299C12.1658 5.40273 12.4315 6.31807 12.4322 7.25276ZM2.56079 7.25276C2.56004 6.51915 2.72371 5.7947 3.03978 5.13266L3.67581 6.83042C3.72881 6.97099 3.81626 7.09601 3.93013 7.194C4.044 7.29199 4.18064 7.35983 4.32754 7.3913L5.52949 7.64986L5.74319 8.09407C5.81735 8.24515 5.93228 8.37249 6.075 8.46169C6.21772 8.55089 6.38254 8.5984 6.55084 8.59886H6.63385L6.22834 9.50916C6.15689 9.66944 6.13401 9.84716 6.16252 10.0203C6.19103 10.1935 6.26969 10.3545 6.38875 10.4834L6.3966 10.4912L7.49648 11.6242L7.38767 12.1851C6.09868 12.1551 4.87246 11.6225 3.97067 10.701C3.06888 9.77953 2.56293 8.54209 2.56079 7.25276Z" fill="#9A32AA"/>
</svg>
