<svg width="82" height="25" viewBox="0 0 82 25" fill="none" xmlns="http://www.w3.org/2000/svg">
<g clip-path="url(#clip0_1_3452)">
<path fill-rule="evenodd" clip-rule="evenodd" d="M78.0675 24.1266H3.31022C1.65445 24.1266 0.305969 22.7779 0.305969 21.1353V3.18737C0.305969 1.53878 1.65445 0.196045 3.31022 0.196045H78.0675C79.7218 0.196045 81.0717 1.53878 81.0717 3.18737V21.1353C81.0717 22.7779 79.7218 24.1266 78.0675 24.1266Z" fill="black"/>
<path fill-rule="evenodd" clip-rule="evenodd" d="M78.0675 0.674955C79.4563 0.674955 80.5929 1.80435 80.5929 3.18737V21.1353C80.5929 22.5183 79.4637 23.6477 78.0675 23.6477H3.31022C1.92146 23.6477 0.7848 22.5183 0.7848 21.1353V3.18737C0.7848 1.80435 1.91401 0.674955 3.31022 0.674955H78.0675ZM78.0675 0.196045H3.31022C1.65445 0.196045 0.305969 1.54475 0.305969 3.18737V21.1353C0.305969 22.7839 1.65445 24.1266 3.31022 24.1266H78.0675C79.7218 24.1266 81.0717 22.7839 81.0717 21.1353V3.18737C81.0717 1.54475 79.7218 0.196045 78.0675 0.196045Z" fill="#A6A6A6"/>
<path d="M41.0688 13.2099C39.6617 13.2099 38.5148 14.2796 38.5148 15.7543C38.5148 17.2194 39.6617 18.2987 41.0688 18.2987C42.476 18.2987 43.6228 17.2194 43.6228 15.7543C43.6228 14.2796 42.476 13.2099 41.0688 13.2099ZM41.0688 17.2966C40.2977 17.2966 39.6324 16.6606 39.6324 15.7543C39.6324 14.8383 40.2977 14.212 41.0688 14.212C41.84 14.212 42.5047 14.8383 42.5047 15.7543C42.5047 16.6601 41.84 17.2966 41.0688 17.2966ZM35.4966 13.2099C34.0895 13.2099 32.9426 14.2796 32.9426 15.7543C32.9426 17.2194 34.0895 18.2987 35.4966 18.2987C36.9037 18.2987 38.0506 17.2194 38.0506 15.7543C38.0512 14.2796 36.9037 13.2099 35.4966 13.2099ZM35.4966 17.2966C34.7254 17.2966 34.0608 16.6606 34.0608 15.7543C34.0608 14.8383 34.726 14.212 35.4966 14.212C36.2678 14.212 36.9324 14.8383 36.9324 15.7543C36.933 16.6601 36.2678 17.2966 35.4966 17.2966ZM28.869 13.9906V15.0699H31.4523C31.3751 15.6771 31.1729 16.1204 30.8642 16.4291C30.4885 16.8048 29.9004 17.2194 28.869 17.2194C27.2788 17.2194 26.0356 15.9373 26.0356 14.3472C26.0356 12.757 27.2788 11.4749 28.869 11.4749C29.7269 11.4749 30.3533 11.8123 30.8158 12.2461L31.5774 11.4845C30.9318 10.8676 30.0739 10.395 28.869 10.395C26.6907 10.395 24.8594 12.1683 24.8594 14.3466C24.8594 16.5248 26.6907 18.2981 28.869 18.2981C30.0446 18.2981 30.9318 17.9128 31.6258 17.1895C32.3389 16.4764 32.5609 15.4737 32.5609 14.6642C32.5609 14.4136 32.5418 14.182 32.5029 13.9894H28.869V13.9906ZM55.9752 14.8288C55.7634 14.2598 55.1173 13.2093 53.7969 13.2093C52.4861 13.2093 51.3973 14.2407 51.3973 15.7537C51.3973 17.1799 52.4766 18.2981 53.9226 18.2981C55.0886 18.2981 55.7634 17.585 56.0428 17.1704L55.1753 16.5918C54.8864 17.016 54.4909 17.2954 53.9226 17.2954C53.3536 17.2954 52.9492 17.0352 52.6889 16.5242L56.0913 15.1171L55.9752 14.8288ZM52.5053 15.6771C52.4765 14.6942 53.2669 14.1928 53.8352 14.1928C54.2785 14.1928 54.6542 14.4142 54.7799 14.7324L52.5053 15.6771ZM49.7389 18.1443H50.857V10.6654H49.7389V18.1443ZM47.9076 13.7782H47.8693C47.6186 13.4797 47.137 13.2093 46.5298 13.2093C45.2573 13.2093 44.0913 14.3274 44.0913 15.7633C44.0913 17.1895 45.2573 18.2981 46.5298 18.2981C47.137 18.2981 47.6186 18.0283 47.8693 17.7196H47.9076V18.0857C47.9076 19.0591 47.3871 19.5796 46.5483 19.5796C45.8639 19.5796 45.4398 19.0878 45.2663 18.6738L44.2929 19.0788C44.5723 19.7537 45.3147 20.5823 46.5483 20.5823C47.8591 20.5823 48.9677 19.8111 48.9677 17.932V13.3636H47.9076V13.7782ZM46.6261 17.2966C45.855 17.2966 45.2094 16.6511 45.2094 15.7638C45.2094 14.8676 45.855 14.212 46.6261 14.212C47.3877 14.212 47.9848 14.8671 47.9848 15.7638C47.9848 16.6505 47.3877 17.2966 46.6261 17.2966ZM61.2124 10.6654H58.5376V18.1443H59.6533V15.311H61.2118C62.449 15.311 63.6653 14.4154 63.6653 12.9885C63.6653 11.5616 62.4496 10.6654 61.2124 10.6654ZM61.2411 14.27H59.6533V11.7064H61.2411C62.0757 11.7064 62.5495 12.3974 62.5495 12.9885C62.5495 13.5676 62.0757 14.27 61.2411 14.27ZM68.1403 13.1961C67.3321 13.1961 66.4951 13.5521 66.1487 14.3412L67.14 14.7552C67.3518 14.3412 67.7461 14.2066 68.1601 14.2066C68.7374 14.2066 69.3243 14.553 69.3339 15.1686V15.2458C69.1316 15.1303 68.6985 14.9568 68.1696 14.9568C67.1017 14.9568 66.0141 15.5437 66.0141 16.6409C66.0141 17.6418 66.8899 18.2861 67.8711 18.2861C68.6219 18.2861 69.0353 17.9493 69.295 17.5551H69.3333V18.1324H70.4107V15.2649C70.4107 13.9367 69.42 13.1961 68.1403 13.1961ZM68.0051 17.2948C67.6396 17.2948 67.1293 17.1117 67.1293 16.66C67.1293 16.0827 67.7646 15.8614 68.3126 15.8614C68.8032 15.8614 69.0341 15.9673 69.3327 16.1114C69.2465 16.8042 68.6501 17.2948 68.0051 17.2948ZM74.3366 13.3594L73.0569 16.602H73.0186L71.691 13.3594H70.4885L72.4801 17.8913L71.3446 20.4124H72.5089L75.5786 13.3594H74.3366ZM64.2815 18.1443H65.3979V10.6654H64.2815V18.1443Z" fill="white"/>
<path d="M12.7015 11.8171L6.33179 18.5775C6.33239 18.5787 6.33239 18.5799 6.33298 18.5811C6.52802 19.3158 7.19867 19.856 7.99437 19.856C8.31264 19.856 8.61118 19.7699 8.86723 19.6191L8.88758 19.6071L16.0572 15.4701L12.7015 11.8171Z" fill="#EB4335"/>
<path d="M19.1455 10.6662L19.1395 10.662L16.0441 8.86719L12.5568 11.9704L16.0561 15.469L19.1353 13.6928C19.675 13.4014 20.0411 12.8325 20.0411 12.1762C20.0411 11.5247 19.6798 10.9581 19.1455 10.6662Z" fill="#FABC13"/>
<path d="M6.33182 5.74658C6.29353 5.88777 6.27319 6.03554 6.27319 6.1893V18.1349C6.27319 18.2886 6.29294 18.437 6.33182 18.5776L12.9205 11.9901L6.33182 5.74658Z" fill="#547DBF"/>
<path d="M12.7482 12.1617L16.0452 8.86586L8.88339 4.7139C8.62314 4.55776 8.31982 4.46802 7.99437 4.46802C7.19867 4.46802 6.52742 5.00945 6.33179 5.74472V5.74651L12.7482 12.1617Z" fill="#30A851"/>
<path d="M28.6512 6.05388H26.9115V6.48523H28.2151C28.1798 6.83581 28.0392 7.11161 27.8041 7.31203C27.5684 7.51245 27.2675 7.61296 26.9115 7.61296C26.5202 7.61296 26.1894 7.47775 25.919 7.20674C25.6533 6.93094 25.5175 6.59052 25.5175 6.17892C25.5175 5.76791 25.6533 5.4269 25.919 5.1511C26.1894 4.88068 26.5202 4.74547 26.9115 4.74547C27.1119 4.74547 27.3027 4.78017 27.478 4.85556C27.6533 4.93094 27.7939 5.03623 27.904 5.17144L28.2348 4.8406C28.0847 4.67009 27.8938 4.53967 27.6587 4.44455C27.423 4.34942 27.1771 4.30396 26.9115 4.30396C26.3898 4.30396 25.9489 4.48463 25.5881 4.84538C25.2268 5.20674 25.0467 5.65244 25.0467 6.17892C25.0467 6.70539 25.2268 7.1517 25.5881 7.51245C25.9489 7.8738 26.3898 8.05388 26.9115 8.05388C27.4577 8.05388 27.8938 7.87859 28.2301 7.52262C28.5256 7.22708 28.6764 6.82564 28.6764 6.3243C28.6764 6.23934 28.6662 6.149 28.6512 6.05388Z" fill="white"/>
<path d="M29.3381 4.38412V7.97372H31.4338V7.53279H29.7993V6.39489H31.2729V5.96354H29.7993V4.82564H31.4338V4.38412H29.3381Z" fill="white"/>
<path d="M34.3808 4.82564V4.38412H31.9142V4.82564H32.9169V7.97372H33.3781V4.82564H34.3808Z" fill="white"/>
<path d="M36.6273 4.38412H36.166V7.97372H36.6273V4.38412Z" fill="white"/>
<path d="M39.6755 4.82564V4.38412H37.2088V4.82564H38.2115V7.97372H38.6728V4.82564H39.6755Z" fill="white"/>
<path d="M44.3431 4.85077C43.9872 4.48463 43.551 4.30396 43.0293 4.30396C42.5083 4.30396 42.0715 4.48463 41.7156 4.84538C41.3596 5.20135 41.1843 5.64766 41.1843 6.17892C41.1843 6.71078 41.3596 7.15648 41.7156 7.51245C42.0715 7.8738 42.5083 8.05388 43.0293 8.05388C43.5456 8.05388 43.9872 7.8738 44.3431 7.51245C44.6991 7.15648 44.8744 6.71078 44.8744 6.17892C44.8744 5.65244 44.6991 5.20674 44.3431 4.85077ZM42.047 5.1511C42.3126 4.88068 42.6381 4.74547 43.0293 4.74547C43.4206 4.74547 43.7461 4.88068 44.0069 5.1511C44.2725 5.41733 44.403 5.76312 44.403 6.17892C44.403 6.59531 44.2725 6.94111 44.0069 7.20674C43.7461 7.47775 43.4206 7.61296 43.0293 7.61296C42.6381 7.61296 42.3126 7.47775 42.047 7.20674C41.7861 6.93632 41.6557 6.59531 41.6557 6.17892C41.6557 5.76312 41.7861 5.42211 42.047 5.1511Z" fill="white"/>
<path d="M45.9824 5.738L45.9626 5.04581H45.9824L47.8077 7.97372H48.2887V4.38412H47.8274V6.48523L47.8478 7.17683H47.8274L46.0829 4.38412H45.5217V7.97372H45.9824V5.738Z" fill="white"/>
</g>
<defs>
<clipPath id="clip0_1_3452">
<rect width="80.7658" height="23.9306" fill="white" transform="translate(0.30426 0.196533)"/>
</clipPath>
</defs>
</svg>
