<svg width="15" height="16" viewBox="0 0 15 16" fill="none" xmlns="http://www.w3.org/2000/svg">
<path d="M7.39779 7.65137L1.02806 14.4118C1.02866 14.413 1.02866 14.4142 1.02926 14.4154C1.22429 15.15 1.89495 15.6903 2.69064 15.6903C3.00892 15.6903 3.30745 15.6041 3.56351 15.4533L3.58385 15.4414L10.7535 11.3044L7.39779 7.65137Z" fill="#EB4335"/>
<path d="M13.8418 6.5004L13.8358 6.49621L10.7404 4.70142L7.25307 7.80462L10.7523 11.3033L13.8316 9.52702C14.3712 9.23567 14.7374 8.66672 14.7374 8.01042C14.7374 7.35891 14.376 6.79235 13.8418 6.5004Z" fill="#FABC13"/>
<path d="M1.02808 1.58081C0.989793 1.722 0.969452 1.86977 0.969452 2.02353V13.9691C0.969452 14.1228 0.989194 14.2712 1.02808 14.4118L7.61678 7.82431L1.02808 1.58081Z" fill="#547DBF"/>
<path d="M7.44445 7.99594L10.7415 4.70009L3.57966 0.548133C3.31942 0.391986 3.0161 0.302246 2.69064 0.302246C1.89495 0.302246 1.22369 0.843676 1.02806 1.57894V1.58074L7.44445 7.99594Z" fill="#30A851"/>
</svg>
