<svg width="25" height="25" viewBox="0 0 25 25" fill="none" xmlns="http://www.w3.org/2000/svg">
<path d="M21.5965 9.0517H17.0535L17.8452 4.69839C17.877 4.50483 17.8315 4.30652 17.7185 4.14621C17.6055 3.98589 17.434 3.8764 17.241 3.84134C17.048 3.80627 16.849 3.84843 16.6868 3.95874C16.5246 4.06904 16.4122 4.23866 16.3739 4.43104L15.5326 9.0517H11.0708L11.8626 4.69839C11.8944 4.50483 11.8489 4.30652 11.7359 4.14621C11.6228 3.98589 11.4513 3.8764 11.2583 3.84134C11.0654 3.80627 10.8663 3.84843 10.7041 3.95874C10.5419 4.06904 10.4295 4.23866 10.3912 4.43104L9.55085 9.0517H5.14426C4.94592 9.0517 4.75571 9.13049 4.61546 9.27073C4.47522 9.41098 4.39643 9.60119 4.39643 9.79953C4.39643 9.99787 4.47522 10.1881 4.61546 10.3283C4.75571 10.4686 4.94592 10.5474 5.14426 10.5474H9.27883L8.46276 15.0343H3.6486C3.45026 15.0343 3.26004 15.1131 3.1198 15.2534C2.97955 15.3936 2.90076 15.5838 2.90076 15.7822C2.90076 15.9805 2.97955 16.1707 3.1198 16.311C3.26004 16.4512 3.45026 16.53 3.6486 16.53H8.19167L7.3999 20.8833C7.36448 21.0784 7.408 21.2796 7.52089 21.4427C7.63379 21.6057 7.80681 21.7172 8.00191 21.7527C8.046 21.7608 8.09075 21.7649 8.13558 21.7648C8.31056 21.7646 8.4799 21.703 8.61415 21.5908C8.7484 21.4786 8.83905 21.3228 8.87033 21.1507L9.71164 16.53H14.1743L13.3826 20.8833C13.3471 21.0784 13.3907 21.2796 13.5035 21.4427C13.6164 21.6057 13.7895 21.7172 13.9846 21.7527C14.0286 21.7608 14.0734 21.7649 14.1182 21.7648C14.2932 21.7646 14.4626 21.703 14.5968 21.5908C14.7311 21.4786 14.8217 21.3228 14.853 21.1507L15.6943 16.53H20.1009C20.2992 16.53 20.4894 16.4512 20.6297 16.311C20.7699 16.1707 20.8487 15.9805 20.8487 15.7822C20.8487 15.5838 20.7699 15.3936 20.6297 15.2534C20.4894 15.1131 20.2992 15.0343 20.1009 15.0343H15.9663L16.7824 10.5474H21.5965C21.7949 10.5474 21.9851 10.4686 22.1253 10.3283C22.2656 10.1881 22.3444 9.99787 22.3444 9.79953C22.3444 9.60119 22.2656 9.41098 22.1253 9.27073C21.9851 9.13049 21.7949 9.0517 21.5965 9.0517ZM14.4454 15.0343H9.98366L10.7997 10.5474H15.2615L14.4454 15.0343Z" fill="#4D4D4D"/>
</svg>
