<svg width="11" height="11" viewBox="0 0 11 11" fill="none" xmlns="http://www.w3.org/2000/svg">
<path d="M5.34229 1.87512C4.57318 1.87512 3.82133 2.10319 3.18183 2.53049C2.54234 2.95779 2.04391 3.56512 1.74958 4.2757C1.45525 4.98627 1.37824 5.76816 1.52829 6.5225C1.67834 7.27684 2.0487 7.96974 2.59255 8.51359C3.1364 9.05744 3.8293 9.4278 4.58364 9.57785C5.33798 9.72789 6.11987 9.65088 6.83044 9.35656C7.54101 9.06223 8.14835 8.5638 8.57565 7.9243C9.00295 7.28481 9.23101 6.53296 9.23101 5.76384C9.22993 4.73283 8.81987 3.74435 8.09083 3.01531C7.36179 2.28626 6.37331 1.87621 5.34229 1.87512ZM5.34229 9.0543C4.6915 9.0543 4.05532 8.86132 3.51421 8.49976C2.9731 8.1382 2.55135 7.6243 2.30231 7.02305C2.05326 6.4218 1.9881 5.76019 2.11506 5.12191C2.24202 4.48362 2.55541 3.89732 3.01559 3.43714C3.47577 2.97696 4.06207 2.66358 4.70036 2.53661C5.33864 2.40965 6.00024 2.47481 6.6015 2.72386C7.20275 2.97291 7.71665 3.39465 8.07821 3.93576C8.43977 4.47688 8.63275 5.11305 8.63275 5.76384C8.63176 6.63622 8.28477 7.47259 7.6679 8.08946C7.05104 8.70632 6.21467 9.05331 5.34229 9.0543ZM5.94056 7.55864C5.94056 7.63797 5.90904 7.71406 5.85294 7.77016C5.79685 7.82626 5.72076 7.85777 5.64142 7.85777C5.48275 7.85777 5.33058 7.79474 5.21839 7.68254C5.10619 7.57035 5.04316 7.41818 5.04316 7.25951V5.76384C4.96382 5.76384 4.88774 5.73233 4.83164 5.67623C4.77554 5.62013 4.74403 5.54405 4.74403 5.46471C4.74403 5.38538 4.77554 5.30929 4.83164 5.25319C4.88774 5.1971 4.96382 5.16558 5.04316 5.16558C5.20183 5.16558 5.354 5.22861 5.4662 5.34081C5.57839 5.453 5.64142 5.60518 5.64142 5.76384V7.25951C5.72076 7.25951 5.79685 7.29102 5.85294 7.34712C5.90904 7.40322 5.94056 7.47931 5.94056 7.55864ZM4.74403 4.11862C4.74403 4.02987 4.77034 3.94312 4.81965 3.86933C4.86895 3.79554 4.93903 3.73803 5.02102 3.70407C5.10301 3.67011 5.19322 3.66123 5.28026 3.67854C5.3673 3.69585 5.44725 3.73859 5.51 3.80134C5.57276 3.86409 5.61549 3.94404 5.6328 4.03108C5.65012 4.11812 5.64123 4.20834 5.60727 4.29033C5.57331 4.37231 5.5158 4.44239 5.44201 4.4917C5.36822 4.541 5.28147 4.56731 5.19273 4.56731C5.07372 4.56731 4.9596 4.52004 4.87545 4.43589C4.7913 4.35175 4.74403 4.23762 4.74403 4.11862Z" fill="#9A32AA"/>
</svg>
