<svg width="20" height="20" viewBox="0 0 20 20" fill="none" xmlns="http://www.w3.org/2000/svg">
<path d="M13.1901 1.96802H6.01091C4.90059 1.96921 3.83608 2.41081 3.05097 3.19592C2.26585 3.98104 1.82425 5.04555 1.82306 6.15587V13.3351C1.82425 14.4454 2.26585 15.5099 3.05097 16.295C3.83608 17.0801 4.90059 17.5217 6.01091 17.5229H13.1901C14.3004 17.5217 15.3649 17.0801 16.15 16.295C16.9352 15.5099 17.3768 14.4454 17.378 13.3351V6.15587C17.3768 5.04555 16.9352 3.98104 16.15 3.19592C15.3649 2.41081 14.3004 1.96921 13.1901 1.96802ZM9.6005 13.3351C8.89055 13.3351 8.19654 13.1245 7.60624 12.7301C7.01593 12.3357 6.55584 11.7751 6.28416 11.1191C6.01247 10.4632 5.94138 9.74148 6.07989 9.04517C6.21839 8.34886 6.56027 7.70925 7.06228 7.20724C7.56429 6.70523 8.2039 6.36335 8.90021 6.22485C9.59652 6.08634 10.3183 6.15743 10.9742 6.42911C11.6301 6.7008 12.1907 7.16089 12.5851 7.75119C12.9796 8.3415 13.1901 9.03551 13.1901 9.74546C13.1891 10.6972 12.8106 11.6096 12.1376 12.2826C11.4647 12.9556 10.5522 13.3341 9.6005 13.3351ZM14.0875 6.15587C13.91 6.15587 13.7365 6.10324 13.5889 6.00463C13.4413 5.90603 13.3263 5.76587 13.2584 5.60189C13.1905 5.43792 13.1727 5.25748 13.2073 5.0834C13.242 4.90932 13.3274 4.74942 13.4529 4.62392C13.5784 4.49842 13.7383 4.41295 13.9124 4.37832C14.0865 4.34369 14.2669 4.36147 14.4309 4.42939C14.5949 4.49731 14.735 4.61233 14.8337 4.75991C14.9323 4.90748 14.9849 5.08099 14.9849 5.25848C14.9849 5.49648 14.8903 5.72474 14.722 5.89303C14.5538 6.06133 14.3255 6.15587 14.0875 6.15587ZM11.9936 9.74546C11.9936 10.2188 11.8532 10.6814 11.5903 11.075C11.3273 11.4685 10.9536 11.7752 10.5163 11.9564C10.079 12.1375 9.59785 12.1849 9.13364 12.0925C8.66943 12.0002 8.24303 11.7723 7.90836 11.4376C7.57368 11.1029 7.34576 10.6765 7.25343 10.2123C7.16109 9.74812 7.20848 9.26695 7.38961 8.82968C7.57073 8.3924 7.87746 8.01866 8.27099 7.75571C8.66453 7.49275 9.1272 7.3524 9.6005 7.3524C10.2352 7.3524 10.8439 7.60453 11.2927 8.05331C11.7414 8.5021 11.9936 9.11078 11.9936 9.74546Z" fill="#ADADAD"/>
</svg>
