<svg width="15" height="16" viewBox="0 0 15 16" fill="none" xmlns="http://www.w3.org/2000/svg">
<g clip-path="url(#clip0_1_3164)">
<path d="M14.0583 7.85758C14.0587 8.01747 14.0164 8.17457 13.9357 8.31262C13.8551 8.45067 13.739 8.56466 13.5995 8.64281L4.18131 14.0278C4.04616 14.1044 3.89358 14.1449 3.73822 14.1455C3.59508 14.1448 3.4542 14.1098 3.32735 14.0435C3.20049 13.9771 3.09133 13.8815 3.00899 13.7644C2.92665 13.6473 2.87351 13.5122 2.85402 13.3704C2.83452 13.2286 2.84923 13.0842 2.89691 12.9492L4.41127 8.46501C4.42607 8.42117 4.45407 8.38298 4.49142 8.35567C4.52877 8.32836 4.57365 8.31326 4.61992 8.31245H8.67391C8.73542 8.31259 8.7963 8.30007 8.85278 8.27569C8.90925 8.2513 8.9601 8.21557 9.00218 8.1707C9.04426 8.12584 9.07666 8.0728 9.09738 8.01488C9.1181 7.95696 9.12669 7.8954 9.12261 7.83403C9.11244 7.71865 9.05905 7.61137 8.97314 7.53368C8.88723 7.45599 8.77515 7.41362 8.65933 7.41506H4.62104C4.5741 7.41506 4.52835 7.40034 4.49021 7.37297C4.45208 7.34561 4.42349 7.30697 4.40847 7.2625L2.89411 2.77888C2.83384 2.60702 2.82728 2.42089 2.8753 2.24522C2.92333 2.06955 3.02367 1.91264 3.16299 1.79536C3.30231 1.67807 3.47402 1.60594 3.65531 1.58857C3.8366 1.57119 4.01888 1.60938 4.17795 1.69807L13.6006 7.07629C13.7393 7.15425 13.8548 7.26769 13.9352 7.40498C14.0156 7.54227 14.0581 7.69847 14.0583 7.85758Z" fill="#9A32AA"/>
</g>
<defs>
<clipPath id="clip0_1_3164">
<rect width="14.3584" height="14.3584" fill="white" transform="translate(0.598358 0.68457)"/>
</clipPath>
</defs>
</svg>
