<svg width="16" height="16" viewBox="0 0 16 16" fill="none" xmlns="http://www.w3.org/2000/svg">
<g clip-path="url(#clip0_1_3177)">
<path d="M13.3711 5.62429C13.3486 5.5682 13.3251 5.51212 13.3009 5.45603C12.9391 4.62147 12.3534 3.90325 11.6088 3.3808H12.8102C12.9292 3.3808 13.0433 3.33352 13.1275 3.24938C13.2116 3.16523 13.2589 3.0511 13.2589 2.9321C13.2589 2.81309 13.2116 2.69897 13.1275 2.61482C13.0433 2.53067 12.9292 2.4834 12.8102 2.4834H6.9771C5.7365 2.48497 4.54186 2.95305 3.63041 3.79468C2.71896 4.63631 2.15735 5.78993 2.05711 7.02647C1.66953 7.12282 1.32515 7.34569 1.07849 7.6598C0.831838 7.97391 0.696996 8.36132 0.695312 8.76069C0.695313 8.8797 0.742586 8.99383 0.826733 9.07797C0.910881 9.16212 1.02501 9.20939 1.14401 9.20939C1.26301 9.20939 1.37714 9.16212 1.46129 9.07797C1.54544 8.99383 1.59271 8.8797 1.59271 8.76069C1.59281 8.59707 1.63765 8.43659 1.72237 8.29661C1.80709 8.15663 1.92847 8.04248 2.07338 7.9665C2.18506 8.97319 2.60483 9.92084 3.27533 10.68L3.97979 12.652C4.04207 12.8265 4.15679 12.9774 4.30822 13.084C4.45965 13.1906 4.64037 13.2478 4.82558 13.2477H5.53902C5.72413 13.2477 5.90473 13.1905 6.05605 13.0838C6.20737 12.9772 6.32201 12.8264 6.38425 12.652L6.49194 12.3503H9.70575L9.81343 12.652C9.87568 12.8264 9.99032 12.9772 10.1416 13.0838C10.293 13.1905 10.4736 13.2477 10.6587 13.2477H11.3721C11.5572 13.2477 11.7378 13.1905 11.8891 13.0838C12.0405 12.9772 12.1551 12.8264 12.2173 12.652L13.1265 10.1068H13.2589C13.6159 10.1068 13.9583 9.96497 14.2107 9.71253C14.4632 9.46009 14.605 9.1177 14.605 8.76069V6.9659C14.605 6.62828 14.4782 6.30296 14.2496 6.05446C14.0211 5.80596 13.7075 5.65243 13.3711 5.62429ZM9.22059 4.72241H6.9771C6.85809 4.72241 6.74397 4.67513 6.65982 4.59098C6.57567 4.50684 6.5284 4.39271 6.5284 4.27371C6.5284 4.1547 6.57567 4.04058 6.65982 3.95643C6.74397 3.87228 6.85809 3.82501 6.9771 3.82501H9.22059C9.33959 3.82501 9.45372 3.87228 9.53787 3.95643C9.62202 4.04058 9.66929 4.1547 9.66929 4.27371C9.66929 4.39271 9.62202 4.50684 9.53787 4.59098C9.45372 4.67513 9.33959 4.72241 9.22059 4.72241ZM10.791 7.8633C10.6579 7.8633 10.5278 7.82382 10.4171 7.74987C10.3064 7.67591 10.2202 7.5708 10.1692 7.44781C10.1183 7.32483 10.1049 7.1895 10.1309 7.05894C10.1569 6.92838 10.221 6.80846 10.3151 6.71433C10.4092 6.6202 10.5292 6.5561 10.6597 6.53013C10.7903 6.50416 10.9256 6.51749 11.0486 6.56843C11.1716 6.61937 11.2767 6.70564 11.3507 6.81632C11.4246 6.92701 11.4641 7.05713 11.4641 7.19025C11.4641 7.36875 11.3932 7.53994 11.267 7.66617C11.1407 7.79239 10.9695 7.8633 10.791 7.8633Z" fill="#9A32AA"/>
</g>
<defs>
<clipPath id="clip0_1_3177">
<rect width="14.3584" height="14.3584" fill="white" transform="translate(0.693848 0.68457)"/>
</clipPath>
</defs>
</svg>
