<svg width="16" height="15" viewBox="0 0 16 15" fill="none" xmlns="http://www.w3.org/2000/svg">
<path d="M12.5794 2.31702H3.60541C3.3674 2.31702 3.13914 2.41156 2.97085 2.57986C2.80255 2.74815 2.70801 2.97641 2.70801 3.21441V6.35531C2.70801 9.31223 4.13936 11.1042 5.34019 12.0869C6.63356 13.1447 7.92021 13.5036 7.97629 13.5188C8.05341 13.5398 8.13474 13.5398 8.21186 13.5188C8.26795 13.5036 9.55291 13.1447 10.848 12.0869C12.0454 11.1042 13.4768 9.31223 13.4768 6.35531V3.21441C13.4768 2.97641 13.3822 2.74815 13.2139 2.57986C13.0456 2.41156 12.8174 2.31702 12.5794 2.31702ZM10.6545 6.22406L7.51357 9.36495C7.4719 9.40667 7.42241 9.43977 7.36794 9.46235C7.31347 9.48493 7.25508 9.49655 7.19612 9.49655C7.13715 9.49655 7.07876 9.48493 7.02429 9.46235C6.96982 9.43977 6.92034 9.40667 6.87866 9.36495L5.53257 8.01886C5.44837 7.93466 5.40107 7.82047 5.40107 7.7014C5.40107 7.58233 5.44837 7.46814 5.53257 7.38395C5.61676 7.29975 5.73095 7.25245 5.85002 7.25245C5.96909 7.25245 6.08328 7.29975 6.16748 7.38395L7.195 8.41315L10.0184 5.58915C10.0601 5.54746 10.1096 5.51439 10.1641 5.49183C10.2186 5.46927 10.2769 5.45766 10.3359 5.45766C10.3948 5.45766 10.4532 5.46927 10.5077 5.49183C10.5622 5.51439 10.6117 5.54746 10.6533 5.58915C10.695 5.63084 10.7281 5.68033 10.7507 5.7348C10.7732 5.78927 10.7848 5.84765 10.7848 5.90661C10.7848 5.96556 10.7732 6.02394 10.7507 6.07841C10.7281 6.13288 10.695 6.18237 10.6533 6.22406H10.6545Z" fill="#9A32AA"/>
</svg>
