<svg width="15" height="16" viewBox="0 0 15 16" fill="none" xmlns="http://www.w3.org/2000/svg">
<path d="M13.0716 13.1089C13.0322 13.1771 12.9756 13.2338 12.9074 13.2732C12.8391 13.3125 12.7617 13.3333 12.6829 13.3333H1.91417C1.83545 13.3332 1.75813 13.3124 1.68999 13.273C1.62184 13.2336 1.56526 13.1769 1.52593 13.1087C1.48661 13.0405 1.46591 12.9632 1.46593 12.8844C1.46595 12.8057 1.48669 12.7284 1.52605 12.6602C2.38026 11.1834 3.69663 10.1245 5.23286 9.62251C4.47297 9.17015 3.88259 8.48084 3.55237 7.66046C3.22215 6.84008 3.17035 5.93399 3.40494 5.08132C3.63953 4.22866 4.14753 3.47657 4.85092 2.94056C5.55432 2.40455 6.41421 2.11426 7.29856 2.11426C8.18291 2.11426 9.0428 2.40455 9.7462 2.94056C10.4496 3.47657 10.9576 4.22866 11.1922 5.08132C11.4268 5.93399 11.375 6.84008 11.0448 7.66046C10.7145 8.48084 10.1241 9.17015 9.36426 9.62251C10.9005 10.1245 12.2169 11.1834 13.0711 12.6602C13.1105 12.7284 13.1314 12.8057 13.1315 12.8845C13.1316 12.9632 13.1109 13.0406 13.0716 13.1089Z" fill="#9A32AA"/>
</svg>
