<svg width="20" height="20" viewBox="0 0 20 20" fill="none" xmlns="http://www.w3.org/2000/svg">
<path d="M16.186 16.6144C16.1345 16.7082 16.0588 16.7865 15.9667 16.8411C15.8746 16.8957 15.7696 16.9246 15.6626 16.9248H12.073C11.9723 16.9247 11.8732 16.8993 11.785 16.8508C11.6967 16.8023 11.6222 16.7323 11.5682 16.6473L8.54021 11.8889L4.13997 16.7288C4.0327 16.8441 3.88434 16.9124 3.72705 16.9189C3.56976 16.9255 3.41622 16.8698 3.29971 16.7639C3.18321 16.6581 3.11313 16.5105 3.10467 16.3533C3.09622 16.1961 3.15006 16.0419 3.25453 15.9242L7.87389 10.8389L3.19246 3.48624C3.13481 3.39578 3.10253 3.29149 3.09902 3.18428C3.0955 3.07707 3.12087 2.97089 3.17248 2.87685C3.22409 2.78281 3.30003 2.70438 3.39235 2.64976C3.48467 2.59514 3.58998 2.56635 3.69725 2.56641H7.28684C7.38753 2.56644 7.48658 2.59188 7.57482 2.64038C7.66306 2.68888 7.73763 2.75886 7.79163 2.84385L10.8196 7.6023L15.2198 2.76234C15.3271 2.64711 15.4755 2.57881 15.6328 2.57224C15.79 2.56566 15.9436 2.62135 16.0601 2.72723C16.1766 2.83311 16.2467 2.98064 16.2551 3.13784C16.2636 3.29504 16.2097 3.44924 16.1053 3.567L11.4859 8.64852L16.1673 16.0057C16.2247 16.0962 16.2567 16.2004 16.2599 16.3075C16.2632 16.4146 16.2377 16.5206 16.186 16.6144Z" fill="#ADADAD"/>
</svg>
