<svg width="12" height="14" viewBox="0 0 12 14" fill="none" xmlns="http://www.w3.org/2000/svg">
<path d="M9.65518 7.17527C9.66161 6.67593 9.79425 6.18632 10.0407 5.75201C10.2872 5.31769 10.6396 4.95279 11.065 4.69124C10.7948 4.30527 10.4382 3.98762 10.0237 3.76354C9.60924 3.53946 9.14821 3.41511 8.67725 3.40038C7.67262 3.29493 6.69867 4.00153 6.18673 4.00153C5.66488 4.00153 4.87667 3.41085 4.02789 3.42831C3.47888 3.44605 2.94383 3.6057 2.47486 3.8917C2.00589 4.17771 1.61901 4.58032 1.3519 5.0603C0.194857 7.06354 1.05791 10.0076 2.16626 11.6269C2.72079 12.4198 3.36888 13.3055 4.21689 13.2741C5.04672 13.2397 5.35665 12.745 6.35832 12.745C7.3507 12.745 7.64147 13.2741 8.50669 13.2541C9.39714 13.2397 9.95816 12.4577 10.4932 11.6573C10.8917 11.0923 11.1983 10.4679 11.4017 9.80714C10.8843 9.58834 10.4429 9.2221 10.1323 8.75408C9.82171 8.28606 9.65578 7.73697 9.65518 7.17527Z" fill="white"/>
<path d="M8.02093 2.33539C8.50644 1.75255 8.74563 1.00342 8.68771 0.24707C7.94596 0.324977 7.26079 0.679484 6.76873 1.23996C6.52814 1.51376 6.34387 1.8323 6.22647 2.17736C6.10906 2.52242 6.06081 2.88724 6.08448 3.25096C6.45549 3.25478 6.82253 3.17436 7.15795 3.01577C7.49338 2.85718 7.78845 2.62454 8.02093 2.33539Z" fill="white"/>
</svg>
